<svg xmlns="http://www.w3.org/2000/svg" viewBox="0 0 100 100" width="100" height="100">
  <!-- Background circle -->
  <circle cx="50" cy="50" r="48" fill="#1f2937" stroke="#374151" stroke-width="2"/>
  
  <!-- Dartboard outer ring (white) -->
  <circle cx="50" cy="50" r="42" fill="#f9fafb" stroke="#6b7280" stroke-width="1"/>
  
  <!-- Dartboard segments (alternating colors) -->
  <!-- Outer scoring area -->
  <circle cx="50" cy="50" r="38" fill="#dc2626" stroke="none"/>
  <circle cx="50" cy="50" r="34" fill="#f9fafb" stroke="none"/>
  
  <!-- Triple ring -->
  <circle cx="50" cy="50" r="30" fill="#22c55e" stroke="none"/>
  <circle cx="50" cy="50" r="26" fill="#f9fafb" stroke="none"/>
  
  <!-- Inner scoring area -->
  <circle cx="50" cy="50" r="22" fill="#dc2626" stroke="none"/>
  <circle cx="50" cy="50" r="18" fill="#f9fafb" stroke="none"/>
  
  <!-- Double ring -->
  <circle cx="50" cy="50" r="14" fill="#22c55e" stroke="none"/>
  <circle cx="50" cy="50" r="10" fill="#f9fafb" stroke="none"/>
  
  <!-- Bull's eye -->
  <circle cx="50" cy="50" r="6" fill="#dc2626" stroke="none"/>
  <circle cx="50" cy="50" r="3" fill="#22c55e" stroke="none"/>
  
  <!-- Dartboard dividing lines (8 main segments) -->
  <g stroke="#374151" stroke-width="0.5" fill="none">
    <line x1="50" y1="8" x2="50" y2="92"/>
    <line x1="8" y1="50" x2="92" y2="50"/>
    <line x1="20.7" y1="20.7" x2="79.3" y2="79.3"/>
    <line x1="79.3" y1="20.7" x2="20.7" y2="79.3"/>
  </g>
  
  <!-- Additional segment lines -->
  <g stroke="#374151" stroke-width="0.3" fill="none">
    <line x1="35.9" y1="14.6" x2="64.1" y2="85.4"/>
    <line x1="64.1" y1="14.6" x2="35.9" y2="85.4"/>
    <line x1="14.6" y1="35.9" x2="85.4" y2="64.1"/>
    <line x1="85.4" y1="35.9" x2="14.6" y2="64.1"/>
  </g>
  
  <!-- Center dot -->
  <circle cx="50" cy="50" r="1" fill="#1f2937"/>
</svg> 